PathFileType	4	(X/Y/Z)	s06c0101.trc
DataRate	CameraRate	NumFrames	NumMarkers	Units	OrigDataRate	OrigDataStartFrame	OrigNumFrames
200	200	6	49	mm	200	250	2000
Frame#	Time	racr			lacr			c7			jug			rlel			rdr			llel			ldr			s2			lic			ric			lasi			rasi			rpsi			lpsi			rgt			lgt			rth1			rth2			rth3			rth4			rlfc			rmfc			rsh1			rsh2			rsh3			rsh4			rlmal			rmmal			rcal			rtoe			rmt5			lth1			lth2			lth4			lth3			llfc			lmfc			llmal			lcal			lmt5			lsh1			lsh2			lsh3			lsh4			ltoe			SBIKE			LBIKE			RBIKE			
		X1	Y1	Z1	X2	Y2	Z2	X3	Y3	Z3	X4	Y4	Z4	X5	Y5	Z5	X6	Y6	Z6	X7	Y7	Z7	X8	Y8	Z8	X9	Y9	Z9	X10	Y10	Z10	X11	Y11	Z11	X12	Y12	Z12	X13	Y13	Z13	X14	Y14	Z14	X15	Y15	Z15	X16	Y16	Z16	X17	Y17	Z17	X18	Y18	Z18	X19	Y19	Z19	X20	Y20	Z20	X21	Y21	Z21	X22	Y22	Z22	X23	Y23	Z23	X24	Y24	Z24	X25	Y25	Z25	X26	Y26	Z26	X27	Y27	Z27	X28	Y28	Z28	X29	Y29	Z29	X30	Y30	Z30	X31	Y31	Z31	X32	Y32	Z32	X33	Y33	Z33	X34	Y34	Z34	X35	Y35	Z35	X36	Y36	Z36	X37	Y37	Z37	X38	Y38	Z38	X39	Y39	Z39	X40	Y40	Z40	X41	Y41	Z41	X42	Y42	Z42	X43	Y43	Z43	X44	Y44	Z44	X45	Y45	Z45	X46	Y46	Z46	X47	Y47	Z47	X48	Y48	Z48	X49	Y49	Z49	
250	1.2500	499.383778	1333.992299	-76.074734	510.341481	1327.906141	-377.920749	486.099824	1401.749460	-230.967120	500.155445	1244.777109	-220.879976	522.428573	1086.910250	38.863469	706.982252	934.732720	-49.953882	521.644923	1074.948361	-481.016541	710.662920	923.226001	-415.860042	-31.920342	1153.506978	-233.559922	150.887011	1102.499448	-400.831470	123.144071	1118.758389	-68.913139	157.883204	1040.785559	-369.425326	145.557622	1071.190998	-93.134703	9.145882	1192.770755	-209.564289	5.577698	1183.366957	-271.497402	94.002518	1073.141659	-34.214091	104.642919	1036.057925	-435.850495	190.782591	998.639840	-27.854818	275.619288	965.779125	-30.495457	330.215551	898.323328	-31.470559	293.913584	993.691341	-49.065429	390.143845	810.468561	-48.659788	387.831858	782.830635	-157.152141	357.376535	691.550757	-23.934886	352.762472	605.532355	-43.059262	308.449314	531.181818	-46.554143	375.160339	603.593061	-76.257753	274.200051	455.559227	-51.427272	306.133296	463.519984	-146.822153	209.727169	432.406737	-99.450608	481.065496	381.289125	-108.278832	384.713206	374.091211	-34.284921	154.261905	928.360961	-445.455636	225.831688	878.733831	-439.808639	253.038302	901.552201	-427.544309	263.484825	798.073984	-434.791105	292.743348	691.090966	-404.275537	290.564922	678.506884	-287.298186	54.065716	404.502593	-391.417644	-10.633379	433.223550	-342.942757	88.407785	258.720205	-403.537661	234.303664	604.230659	-424.992424	196.001669	529.326918	-403.664775	126.099326	476.009921	-407.503642	215.657512	518.045445	-370.784148	148.462790	200.413488	-343.400373	-158.321967	856.911098	-223.689796	-50.076135	79.777531	-420.250621	-50.034009	79.476993	-22.874309	
251	1.2550	500.864991	1332.632606	-76.799502	512.486994	1325.677767	-377.765905	488.395683	1400.681716	-231.178372	501.469860	1243.315007	-220.474666	522.851247	1086.431765	39.419343	707.057331	934.810784	-49.936243	521.661702	1073.658530	-482.172785	710.944778	923.029387	-415.903147	-31.379170	1155.423656	-234.072478	151.636222	1103.528857	-401.655791	123.397717	1120.225318	-69.429750	157.910597	1041.879011	-369.971601	145.509498	1072.442295	-93.503736	10.047556	1194.532934	-210.249265	6.367127	1185.105316	-272.195742	94.280313	1075.247530	-34.822329	104.545635	1038.091249	-436.509388	190.606814	1000.141550	-27.819469	275.092011	966.578424	-30.620657	329.188860	898.736296	-31.364221	293.535989	994.156038	-49.291294	388.809305	810.483079	-48.589964	386.567739	783.206896	-157.424648	356.498420	691.341956	-23.776094	352.298653	605.337888	-42.154274	308.136712	530.813201	-46.444829	374.728881	603.365362	-75.996778	274.343163	454.944288	-51.487080	306.142375	462.820122	-146.810605	209.871613	431.772403	-99.453144	481.285378	380.683723	-108.181181	384.879889	373.519190	-34.237856	154.260747	930.624578	-446.454922	225.730197	880.907786	-440.513961	252.962183	903.724132	-428.474055	263.275812	800.130057	-435.110554	292.141203	692.591512	-404.899385	290.130257	680.376036	-287.667633	53.385647	405.535249	-391.211520	-11.521786	433.949001	-342.605781	87.995255	259.650460	-403.400683	233.483571	605.571758	-425.394992	195.217692	530.630101	-403.950931	125.103196	477.514681	-407.250856	215.144483	519.266968	-371.334513	148.182138	201.388593	-343.489352	-158.244807	856.923547	-223.501854	-50.045689	79.800300	-420.248166	-49.985336	79.495547	-22.874387	
252	1.2600	502.837749	1331.641953	-77.098576	514.561464	1323.593773	-377.460974	490.704193	1399.724608	-231.362253	502.703572	1241.916110	-220.130742	523.262226	1085.861832	39.949898	707.204788	934.820250	-49.935630	522.208813	1072.411791	-482.811447	711.236366	922.845902	-415.939680	-30.731460	1157.337089	-234.580127	152.327355	1104.617545	-402.402406	123.683198	1121.691263	-69.688255	157.893193	1042.900771	-370.544979	145.638079	1073.783473	-93.657536	10.838507	1196.357726	-210.935125	7.156432	1186.859937	-272.844381	94.501508	1077.393572	-35.547300	104.674197	1040.344856	-437.361656	190.290461	1001.650335	-28.160992	274.537363	967.439953	-30.754225	328.195929	899.340791	-31.193435	293.205616	995.027786	-49.357709	387.765440	810.548292	-48.446159	385.691814	783.665563	-157.490554	355.711533	691.309205	-23.614846	351.898861	605.274751	-41.833360	308.001996	530.631723	-46.311568	374.445905	603.340815	-75.668390	274.650041	454.445913	-51.503980	306.378257	462.303574	-146.711351	210.202424	431.376286	-99.408895	481.495953	379.933244	-108.097958	385.097781	372.912972	-34.221825	154.204438	932.869810	-447.320193	225.521978	883.046710	-441.166080	252.775040	905.810205	-429.372670	262.910250	802.169475	-435.382080	291.318331	693.915404	-405.554312	289.668141	682.025893	-288.095493	52.543035	406.554328	-391.063965	-12.419919	434.496014	-342.507227	87.721221	260.595611	-403.366201	232.525705	606.665480	-426.032915	194.289867	531.768827	-404.345738	123.999793	478.618343	-406.972072	214.356975	520.309069	-371.847512	148.140404	202.599642	-343.406541	-158.239367	856.918880	-223.339829	-50.033802	79.821733	-420.239156	-49.978564	79.497178	-22.867197	
253	1.2650	504.811828	1330.644569	-77.411143	516.520961	1321.934244	-376.965356	492.907441	1398.927343	-231.446846	503.934246	1240.525896	-219.679438	523.705924	1085.137283	40.355740	707.379987	934.831813	-49.974201	522.984055	1071.363537	-483.261928	711.472044	922.692223	-416.009576	-29.949588	1159.342113	-235.366431	152.948326	1105.724927	-403.182672	123.998912	1123.156281	-69.883191	157.891513	1044.153924	-371.170442	145.773645	1075.084308	-93.687622	11.872031	1198.148019	-211.698797	8.064057	1188.608033	-273.568970	94.743150	1079.718873	-36.313439	104.426771	1042.320921	-437.374323	189.918087	1003.289918	-28.314320	273.954414	968.545750	-30.981404	327.248889	900.009499	-30.992812	292.875703	995.885536	-49.367279	386.898401	810.857278	-48.084948	384.971246	784.117888	-157.420626	355.065723	691.417340	-23.399112	351.638293	605.335699	-41.559502	307.961202	530.526169	-46.172727	374.307851	603.417724	-75.332764	275.122893	454.094283	-51.419278	306.847897	461.899978	-146.676145	210.654071	431.196927	-99.344925	481.846669	379.037689	-108.114256	385.403814	372.290984	-34.155031	154.092519	935.123162	-448.044122	225.190877	884.983668	-441.694655	252.601561	907.757118	-430.147692	262.161325	803.812709	-435.342441	290.320888	695.030553	-406.291892	289.121070	683.304421	-288.598923	51.566096	407.340889	-390.969824	-13.489160	434.924978	-342.385766	87.428042	261.407423	-403.297239	231.453678	607.526859	-426.604389	193.237800	532.610561	-404.816462	122.857232	479.688238	-407.038788	213.426310	521.208973	-372.376619	148.112443	203.561742	-343.510663	-158.301194	856.979142	-223.196808	-50.029462	79.841899	-420.248537	-49.970726	79.500162	-22.863466	
254	1.2700	506.723975	1329.532674	-77.630494	518.423055	1320.778365	-376.435529	495.093805	1398.117182	-231.421416	505.195472	1239.214979	-219.291547	524.236559	1084.270801	40.706048	707.576900	934.830278	-50.016229	524.063509	1070.539855	-483.515997	711.622692	922.583233	-416.131311	-29.208704	1161.255785	-236.145207	153.527548	1106.905045	-403.964632	124.343246	1124.620063	-70.209095	157.865591	1045.269506	-371.689856	145.829036	1076.334644	-93.843450	12.791642	1199.998901	-212.517232	8.894698	1190.369517	-274.356275	94.894077	1081.996822	-37.066783	104.484270	1044.287331	-437.917351	189.581093	1004.846546	-28.615565	273.468831	969.608796	-31.011109	326.345182	900.827844	-30.729518	292.661415	997.176327	-48.765417	385.984266	811.180811	-47.774562	384.484636	784.569644	-157.217223	354.513633	691.517739	-23.181923	351.456577	605.432783	-41.326412	308.077820	530.430860	-46.087705	374.292594	603.585972	-74.982311	275.520386	453.833389	-51.419261	307.442318	461.446432	-146.640226	211.072255	430.998788	-99.317340	482.167938	378.195222	-108.034705	385.726836	371.666038	-34.138124	153.917534	937.244209	-448.607462	224.743617	886.794671	-442.209516	252.305262	909.441571	-430.817739	261.375798	805.440145	-435.778174	289.229508	695.928383	-406.997346	288.437522	684.169902	-289.404511	50.701436	408.135319	-390.879001	-14.042029	435.448490	-342.402122	87.220586	262.104644	-403.316227	230.275402	608.109845	-427.382909	192.158688	533.276278	-405.227513	121.673080	480.360801	-407.116512	212.519745	521.901821	-373.037618	147.976890	204.425340	-343.431701	-158.345852	856.955010	-223.063673	-50.019859	79.873303	-420.248412	-49.960276	79.516142	-22.860089	
255	1.2750	508.500458	1328.471380	-77.855416	520.212113	1319.964610	-375.862431	497.169587	1397.296687	-231.297872	506.495255	1237.908899	-218.931687	524.631350	1083.351584	41.044493	707.719889	934.815734	-50.082706	525.110938	1069.760735	-483.557807	711.695230	922.515339	-416.298190	-28.424781	1163.230261	-236.957937	154.060852	1108.053737	-404.751737	124.714589	1126.082419	-70.860500	157.871855	1046.443043	-372.211978	145.733617	1077.488904	-94.282223	13.745181	1201.734923	-213.334849	9.750186	1192.156688	-275.232539	95.118599	1084.266610	-37.806726	104.633282	1046.150822	-438.438267	189.398368	1006.367682	-28.913803	273.021368	970.663137	-31.015062	325.571102	901.673357	-30.036143	292.494461	998.063973	-48.646677	385.125556	811.443915	-47.429285	384.040026	784.874362	-157.049612	354.080596	691.627973	-22.946216	351.244493	605.618773	-41.095490	308.171913	530.403860	-45.972218	374.258177	603.699914	-74.653951	275.934337	453.592948	-51.489093	307.910277	461.044186	-146.589600	211.526110	430.792179	-99.294274	482.486057	377.271504	-108.068289	386.005772	371.099723	-34.111642	153.637846	939.199316	-448.945767	224.034665	888.317548	-442.757591	251.753124	910.830907	-431.506637	260.419526	806.851600	-436.317649	288.038206	696.633545	-407.848011	287.576911	684.792098	-290.233450	50.333261	408.577483	-390.955920	-14.547867	435.949908	-342.453678	87.044573	262.752221	-403.357985	229.122391	608.453834	-428.059765	191.190790	533.677607	-405.684099	120.710670	480.743307	-407.434305	211.615461	522.268852	-373.529157	147.851007	205.115970	-343.435917	-158.500220	856.938369	-222.932227	-50.036252	79.875299	-420.228135	-49.978800	79.512871	-22.845147	
